<mxfile host="app.diagrams.net" modified="2024-03-10T23:09:03.890Z" agent="Mozilla/5.0 (Windows NT 10.0; Win64; x64) AppleWebKit/537.36 (KHTML, like Gecko) Chrome/122.0.0.0 Safari/537.36 Edg/122.0.0.0" etag="ANkJ7j8jvNPsQlf1vLHq" version="24.0.4" type="device">
  <diagram name="Página-1" id="ymxodWv3JMZOdaAIbzhB">
    <mxGraphModel dx="1911" dy="875" grid="1" gridSize="10" guides="1" tooltips="1" connect="1" arrows="1" fold="1" page="1" pageScale="1" pageWidth="827" pageHeight="1169" math="0" shadow="0">
      <root>
        <mxCell id="0" />
        <mxCell id="1" parent="0" />
        <mxCell id="13LjL2A3AJQ1UlK9OkIr-3" value="" style="edgeStyle=orthogonalEdgeStyle;rounded=0;orthogonalLoop=1;jettySize=auto;html=1;" edge="1" parent="1" source="13LjL2A3AJQ1UlK9OkIr-1" target="13LjL2A3AJQ1UlK9OkIr-2">
          <mxGeometry relative="1" as="geometry" />
        </mxCell>
        <mxCell id="13LjL2A3AJQ1UlK9OkIr-1" value="INICIO" style="ellipse;whiteSpace=wrap;html=1;fillColor=#5EA9FF;" vertex="1" parent="1">
          <mxGeometry x="354" y="10" width="120" height="80" as="geometry" />
        </mxCell>
        <mxCell id="13LjL2A3AJQ1UlK9OkIr-5" value="" style="edgeStyle=orthogonalEdgeStyle;rounded=0;orthogonalLoop=1;jettySize=auto;html=1;" edge="1" parent="1" source="13LjL2A3AJQ1UlK9OkIr-2" target="13LjL2A3AJQ1UlK9OkIr-4">
          <mxGeometry relative="1" as="geometry" />
        </mxCell>
        <mxCell id="13LjL2A3AJQ1UlK9OkIr-2" value="&quot;Solicitar un numero entero positivo&quot;" style="shape=parallelogram;perimeter=parallelogramPerimeter;whiteSpace=wrap;html=1;fixedSize=1;fillColor=#3CFF2E;" vertex="1" parent="1">
          <mxGeometry x="305" y="160" width="217" height="60" as="geometry" />
        </mxCell>
        <mxCell id="13LjL2A3AJQ1UlK9OkIr-7" value="" style="edgeStyle=orthogonalEdgeStyle;rounded=0;orthogonalLoop=1;jettySize=auto;html=1;" edge="1" parent="1" source="13LjL2A3AJQ1UlK9OkIr-4" target="13LjL2A3AJQ1UlK9OkIr-6">
          <mxGeometry relative="1" as="geometry" />
        </mxCell>
        <mxCell id="13LjL2A3AJQ1UlK9OkIr-9" value="" style="edgeStyle=orthogonalEdgeStyle;rounded=0;orthogonalLoop=1;jettySize=auto;html=1;" edge="1" parent="1" source="13LjL2A3AJQ1UlK9OkIr-4" target="13LjL2A3AJQ1UlK9OkIr-8">
          <mxGeometry relative="1" as="geometry" />
        </mxCell>
        <mxCell id="13LjL2A3AJQ1UlK9OkIr-4" value="¿El numero es positivo?" style="rhombus;whiteSpace=wrap;html=1;fillColor=#474D0A;" vertex="1" parent="1">
          <mxGeometry x="355" y="260" width="117.63" height="140" as="geometry" />
        </mxCell>
        <mxCell id="13LjL2A3AJQ1UlK9OkIr-11" value="" style="edgeStyle=orthogonalEdgeStyle;rounded=0;orthogonalLoop=1;jettySize=auto;html=1;" edge="1" parent="1" source="13LjL2A3AJQ1UlK9OkIr-6" target="13LjL2A3AJQ1UlK9OkIr-10">
          <mxGeometry relative="1" as="geometry" />
        </mxCell>
        <mxCell id="13LjL2A3AJQ1UlK9OkIr-6" value="SI" style="shape=parallelogram;perimeter=parallelogramPerimeter;whiteSpace=wrap;html=1;fixedSize=1;fillColor=#3CFF2E;" vertex="1" parent="1">
          <mxGeometry x="90.005" y="300" width="120" height="60" as="geometry" />
        </mxCell>
        <mxCell id="13LjL2A3AJQ1UlK9OkIr-13" value="" style="edgeStyle=orthogonalEdgeStyle;rounded=0;orthogonalLoop=1;jettySize=auto;html=1;" edge="1" parent="1" source="13LjL2A3AJQ1UlK9OkIr-8" target="13LjL2A3AJQ1UlK9OkIr-12">
          <mxGeometry relative="1" as="geometry" />
        </mxCell>
        <mxCell id="13LjL2A3AJQ1UlK9OkIr-8" value="NO" style="shape=parallelogram;perimeter=parallelogramPerimeter;whiteSpace=wrap;html=1;fixedSize=1;fillColor=#3CFF2E;" vertex="1" parent="1">
          <mxGeometry x="620.0049999999999" y="300" width="120" height="60" as="geometry" />
        </mxCell>
        <mxCell id="13LjL2A3AJQ1UlK9OkIr-15" value="" style="edgeStyle=orthogonalEdgeStyle;rounded=0;orthogonalLoop=1;jettySize=auto;html=1;" edge="1" parent="1" source="13LjL2A3AJQ1UlK9OkIr-10" target="13LjL2A3AJQ1UlK9OkIr-14">
          <mxGeometry relative="1" as="geometry" />
        </mxCell>
        <mxCell id="13LjL2A3AJQ1UlK9OkIr-10" value="Calcular el factorial" style="shape=parallelogram;perimeter=parallelogramPerimeter;whiteSpace=wrap;html=1;fixedSize=1;fillColor=#3CFF2E;" vertex="1" parent="1">
          <mxGeometry x="80" y="440" width="140.01" height="60" as="geometry" />
        </mxCell>
        <mxCell id="13LjL2A3AJQ1UlK9OkIr-17" value="" style="edgeStyle=orthogonalEdgeStyle;rounded=0;orthogonalLoop=1;jettySize=auto;html=1;" edge="1" parent="1" source="13LjL2A3AJQ1UlK9OkIr-12" target="13LjL2A3AJQ1UlK9OkIr-16">
          <mxGeometry relative="1" as="geometry" />
        </mxCell>
        <mxCell id="13LjL2A3AJQ1UlK9OkIr-12" value="Mostrar mensaje: el numero no es positivo" style="shape=parallelogram;perimeter=parallelogramPerimeter;whiteSpace=wrap;html=1;fixedSize=1;fillColor=#3CFF2E;" vertex="1" parent="1">
          <mxGeometry x="610" y="440" width="140" height="60" as="geometry" />
        </mxCell>
        <mxCell id="13LjL2A3AJQ1UlK9OkIr-18" style="edgeStyle=orthogonalEdgeStyle;rounded=0;orthogonalLoop=1;jettySize=auto;html=1;entryX=0;entryY=0.5;entryDx=0;entryDy=0;" edge="1" parent="1" source="13LjL2A3AJQ1UlK9OkIr-14" target="13LjL2A3AJQ1UlK9OkIr-16">
          <mxGeometry relative="1" as="geometry" />
        </mxCell>
        <mxCell id="13LjL2A3AJQ1UlK9OkIr-14" value="Mostrar el resultado del factorial" style="shape=parallelogram;perimeter=parallelogramPerimeter;whiteSpace=wrap;html=1;fixedSize=1;fillColor=#3CFF2E;" vertex="1" parent="1">
          <mxGeometry x="130" y="584.5" width="190" height="60" as="geometry" />
        </mxCell>
        <mxCell id="13LjL2A3AJQ1UlK9OkIr-16" value="FIN" style="ellipse;whiteSpace=wrap;html=1;fillColor=#5EA9FF;" vertex="1" parent="1">
          <mxGeometry x="620" y="574.5" width="120" height="80" as="geometry" />
        </mxCell>
      </root>
    </mxGraphModel>
  </diagram>
</mxfile>
